<svg width="20" height="20" viewBox="0 0 20 20" fill="none" xmlns="http://www.w3.org/2000/svg">
<g clip-path="url(#clip0_836_11187)">
<path d="M12.5007 5.83369L7.08406 11.2504C6.75254 11.5819 6.5663 12.0315 6.5663 12.5004C6.5663 12.9692 6.75254 13.4188 7.08406 13.7504C7.41558 14.0819 7.86522 14.2681 8.33406 14.2681C8.8029 14.2681 9.25254 14.0819 9.58406 13.7504L15.0007 8.33369C15.6638 7.67065 16.0363 6.77137 16.0363 5.83369C16.0363 4.89601 15.6638 3.99673 15.0007 3.33369C14.3377 2.67065 13.4384 2.29816 12.5007 2.29816C11.563 2.29816 10.6638 2.67065 10.0007 3.33369L4.58406 8.75036C3.5895 9.74492 3.03076 11.0938 3.03076 12.5004C3.03076 13.9069 3.5895 15.2558 4.58406 16.2504C5.57862 17.2449 6.92754 17.8037 8.33406 17.8037C9.74059 17.8037 11.0895 17.2449 12.0841 16.2504L17.5007 10.8337" stroke="#8496AE" stroke-width="1.5" stroke-linecap="round" stroke-linejoin="round"/>
</g>
<defs>
<clipPath id="clip0_836_11187">
<rect width="20" height="20" fill="white"/>
</clipPath>
</defs>
</svg>
