<svg width="27" height="38" viewBox="0 0 27 38" fill="none" xmlns="http://www.w3.org/2000/svg">
<g id="Group">
<path id="Vector" d="M20.3868 30.2511H6.02103C4.14466 30.2511 2.61719 28.7236 2.61719 26.8473V15.7075C2.61719 13.2913 4.68452 11.3228 7.22585 11.3228H19.1753C21.7167 11.3228 23.784 13.2913 23.784 15.7075V26.8473C23.784 28.7236 22.2632 30.2511 20.3868 30.2511ZM7.23243 12.5144C5.34947 12.5144 3.81543 13.9497 3.81543 15.7075V26.8473C3.81543 28.0653 4.80961 29.0594 6.02761 29.0594H20.3868C21.6048 29.0594 22.5989 28.0653 22.5989 26.8473V15.7075C22.5989 13.9497 21.0649 12.5144 19.1819 12.5144H7.23243Z" fill="#1EAAB1"/>
<path id="Vector_2" d="M23.5556 32.0156H2.85631C1.69757 32.0156 0.749512 31.107 0.749512 29.9944V15.7076C0.749512 13.5876 1.88191 11.6454 3.77803 10.5064C3.98871 10.3813 4.24547 10.3945 4.44298 10.5393C5.10136 11.0265 6.14161 11.3228 7.23452 11.3228H19.184C20.2703 11.3228 21.3172 11.0331 21.9755 10.5393C22.1665 10.3945 22.4298 10.3813 22.6339 10.5064C24.53 11.6454 25.6624 13.5876 25.6624 15.7076V29.9944C25.6624 31.1136 24.7144 32.0156 23.5556 32.0156ZM4.08087 11.731C2.73778 12.6659 1.94117 14.1275 1.94117 15.7076V29.9944C1.94117 30.4486 2.34936 30.8239 2.85631 30.8239H23.5556C24.056 30.8239 24.4708 30.4552 24.4708 29.9944V15.7076C24.4708 14.1275 23.6807 12.6659 22.3311 11.731C21.4883 12.2314 20.3625 12.5144 19.184 12.5144H7.23452C6.04944 12.5144 4.93018 12.2314 4.08087 11.731Z" fill="#1EAAB1"/>
<path id="Vector_3" d="M8.69035 36.2482H5.93835C5.09563 36.2482 4.41748 35.5635 4.41748 34.7274V31.4223C4.41748 31.0931 4.68085 30.8232 5.01662 30.8232H9.62524C9.95442 30.8232 10.2177 31.0931 10.2177 31.4223V34.7274C10.2177 35.5635 9.53307 36.2482 8.69035 36.2482ZM5.60914 32.0149V34.7208C5.60914 34.9051 5.76059 35.05 5.93835 35.05H8.69035C8.8747 35.05 9.01951 34.9051 9.01951 34.7208V32.0149H5.60914Z" fill="#1EAAB1"/>
<path id="Vector_4" d="M20.4726 36.2482H17.7206C16.8779 36.2482 16.1997 35.5635 16.1997 34.7274V31.4223C16.1997 31.0931 16.463 30.8232 16.7922 30.8232H21.4009C21.7301 30.8232 22 31.0931 22 31.4223V34.7274C21.9934 35.5635 21.3087 36.2482 20.4726 36.2482ZM17.3848 32.0149V34.7208C17.3848 34.9051 17.5296 35.05 17.7139 35.05H20.466C20.6503 35.05 20.7952 34.9051 20.7952 34.7208V32.0149H17.3848Z" fill="#1EAAB1"/>
<path id="Vector_5" d="M25.0631 36.2488H1.34837C1.01919 36.2488 0.755859 35.9854 0.755859 35.6562C0.755859 35.327 1.02577 35.0571 1.34837 35.0571H25.0631C25.3923 35.0571 25.6622 35.327 25.6622 35.6562C25.6622 35.9854 25.3923 36.2488 25.0631 36.2488Z" fill="#1EAAB1"/>
<path id="Vector_6" d="M19.1753 12.5136H7.22585C4.63843 12.5136 2.61719 11.21 2.61719 9.55091V0.847191C2.61719 0.518003 2.88056 0.248047 3.20975 0.248047H23.1848C23.514 0.248047 23.7774 0.518003 23.7774 0.847191V9.55091C23.784 11.2166 21.7628 12.5136 19.1753 12.5136ZM3.80885 1.43971V9.55091C3.80885 10.387 5.21122 11.3219 7.22585 11.3219H19.1753C21.19 11.3219 22.5923 10.387 22.5923 9.55091V1.43971H3.80885Z" fill="#1EAAB1"/>
<path id="Vector_7" d="M17.7552 10.3616H8.65643C6.57596 10.3616 5.00244 9.48599 5.00244 8.32067V3.00095C5.00244 2.67176 5.2724 2.40186 5.60159 2.40186H20.8101C21.1392 2.40186 21.4026 2.67176 21.4026 3.00095V8.32067C21.4026 9.48599 19.8357 10.3616 17.7552 10.3616ZM6.20073 3.59351V8.32067C6.20073 8.56427 7.06316 9.16996 8.66301 9.16996H17.7618C19.3616 9.16996 20.2241 8.57085 20.2241 8.32067V3.59351H6.20073Z" fill="#1EAAB1"/>
<path id="Vector_8" d="M17.6623 14.0419H8.74126C7.99071 14.0419 7.37842 13.4296 7.37842 12.6856C7.37842 11.9416 7.99071 11.3228 8.74126 11.3228H17.6623C18.4128 11.3228 19.0251 11.935 19.0251 12.6856C19.0251 13.4361 18.4128 14.0419 17.6623 14.0419ZM8.74784 12.5144C8.65567 12.5144 8.58329 12.5868 8.58329 12.679C8.58329 12.7712 8.65567 12.8436 8.74784 12.8436H17.6689C17.761 12.8436 17.84 12.7712 17.84 12.679C17.84 12.5868 17.7676 12.5144 17.6689 12.5144H8.74784Z" fill="#1EAAB1"/>
<path id="Vector_9" d="M23.1925 24.3513C23.0082 24.3513 22.8238 24.2657 22.7053 24.1011C22.5144 23.8312 22.5737 23.4625 22.8436 23.2716L24.7134 21.9351C24.9833 21.7441 25.352 21.8034 25.5429 22.0733C25.7339 22.3433 25.6746 22.712 25.4047 22.9029L23.5349 24.2394C23.4361 24.3184 23.311 24.3513 23.1925 24.3513Z" fill="#1EAAB1"/>
<path id="Vector_10" d="M23.1925 26.9585C23.0082 26.9585 22.8238 26.8729 22.7053 26.7083C22.5144 26.4384 22.5737 26.0697 22.8436 25.8788L24.7134 24.5423C24.9833 24.3513 25.352 24.4106 25.5429 24.6805C25.7339 24.9504 25.6746 25.3192 25.4047 25.5101L23.5349 26.8466C23.4361 26.9256 23.311 26.9585 23.1925 26.9585Z" fill="#1EAAB1"/>
<path id="Vector_11" d="M3.21808 24.3513C3.09957 24.3513 2.97447 24.3184 2.86913 24.2394L0.999369 22.9029C0.729435 22.712 0.670156 22.3367 0.861085 22.0733C1.05201 21.8034 1.42728 21.7441 1.69064 21.9351L3.56045 23.2716C3.83038 23.4625 3.88961 23.8378 3.69868 24.1011C3.58676 24.2657 3.40243 24.3513 3.21808 24.3513Z" fill="#1EAAB1"/>
<path id="Vector_12" d="M3.21808 26.9585C3.09957 26.9585 2.97447 26.919 2.86913 26.8466L0.999369 25.5101C0.729435 25.3192 0.670156 24.9438 0.861085 24.6805C1.05201 24.4106 1.42728 24.3513 1.69064 24.5423L3.56045 25.8788C3.83038 26.0697 3.88961 26.445 3.69868 26.7083C3.58676 26.8729 3.40243 26.9585 3.21808 26.9585Z" fill="#1EAAB1"/>
<path id="Vector_13" d="M23.1912 24.2272H3.2161C2.88691 24.2272 2.62354 23.9638 2.62354 23.6346V21.304C2.62354 20.9748 2.88691 20.7048 3.2161 20.7048H23.1912C23.5204 20.7048 23.7838 20.9748 23.7838 21.304V23.6346C23.7838 23.9638 23.5204 24.2272 23.1912 24.2272ZM3.80861 23.0355H22.5921V21.8965H3.80861V23.0355Z" fill="#1EAAB1"/>
<path id="Vector_14" d="M15.9971 21.8957H10.4075C10.0783 21.8957 9.81494 21.6324 9.81494 21.3032V20.5987C9.81494 19.5453 10.6774 18.6829 11.7308 18.6829H14.6803C15.7337 18.6829 16.5962 19.5453 16.5962 20.5987V21.3032C16.5962 21.6324 16.3263 21.8957 15.9971 21.8957ZM11.0066 20.7041H15.4045V20.5922C15.4045 20.1905 15.0819 19.8679 14.6803 19.8679H11.7308C11.3292 19.8679 11.0066 20.1905 11.0066 20.5922V20.7041Z" fill="#1EAAB1"/>
<path id="Vector_15" d="M23.1936 21.8957H18.6377C18.3085 21.8957 18.0386 21.6324 18.0386 21.3032V20.5987C18.0386 19.5453 18.901 18.6829 19.9545 18.6829H23.1871C23.5162 18.6829 23.7796 18.9528 23.7796 19.282V21.3032C23.7862 21.6324 23.5228 21.8957 23.1936 21.8957ZM19.2368 20.7041H22.6011V19.8745H19.961C19.5594 19.8745 19.2368 20.1971 19.2368 20.5987V20.7041Z" fill="#1EAAB1"/>
<path id="Vector_16" d="M7.77207 21.8957H3.2161C2.88691 21.8957 2.62354 21.6324 2.62354 21.3032V19.282C2.62354 18.9528 2.88691 18.6829 3.2161 18.6829H6.44871C7.50869 18.6829 8.36458 19.5453 8.36458 20.5987V21.3032C8.36458 21.6324 8.10126 21.8957 7.77207 21.8957ZM3.80861 20.7041H7.17292V20.5922C7.17292 20.1905 6.85032 19.8679 6.44871 19.8679H3.80861V20.7041Z" fill="#1EAAB1"/>
</g>
</svg>
