<svg width="49" height="42" viewBox="0 0 49 42" fill="none" xmlns="http://www.w3.org/2000/svg">
<g id="Group">
<path id="Vector" d="M20.8196 42C9.48088 42 0.255859 32.5793 0.255859 21C0.255859 9.42075 9.48088 0 20.8196 0C25.6381 0 30.3222 1.7378 34.0122 4.89329C34.3347 5.16768 34.3705 5.65243 34.1018 5.9817C33.8331 6.31097 33.3584 6.34758 33.036 6.07319C29.6147 3.14636 25.2798 1.53658 20.8106 1.53658C10.3049 1.53658 1.76051 10.2622 1.76051 20.9817C1.76051 31.7104 10.3049 40.436 20.8106 40.436C31.3164 40.436 39.8607 31.7104 39.8607 20.9817C39.8607 20.6799 39.8518 20.378 39.8428 20.0762C39.8249 19.6463 40.1473 19.2896 40.5683 19.2713C40.9982 19.2805 41.3385 19.5823 41.3564 20.0122C41.3743 20.3415 41.3743 20.6616 41.3743 20.9909C41.3833 32.5793 32.1583 42 20.8196 42Z" fill="#1EAAB1"/>
<path id="Vector_2" d="M20.8195 38.5885C11.3258 38.5885 3.60547 30.7043 3.60547 21.0092C3.60547 11.3141 11.3258 3.42993 20.8195 3.42993C26.1575 3.42993 31.1103 5.89946 34.3973 10.1982C34.657 10.5367 34.5943 11.0214 34.263 11.2775C33.9316 11.5428 33.4569 11.4787 33.1972 11.1403C30.1968 7.2165 25.6828 4.96651 20.8106 4.96651C12.1498 4.96651 5.11012 12.1556 5.11012 21.0001C5.11012 29.8446 12.1498 37.0336 20.8106 37.0336C29.4713 37.0336 36.511 29.8446 36.511 21.0001C36.511 20.369 36.4752 19.7287 36.4035 19.0976C36.3498 18.6769 36.6543 18.2927 37.0663 18.2379C37.4783 18.1738 37.8545 18.494 37.9082 18.9147C37.9888 19.6007 38.0246 20.3049 38.0246 21.0001C38.0336 30.6952 30.3132 38.5885 20.8195 38.5885Z" fill="#1EAAB1"/>
<path id="Vector_3" d="M20.8199 27.7322C17.1836 27.7322 14.228 24.7139 14.228 21.0005C14.228 17.2871 17.1836 14.2688 20.8199 14.2688C24.4561 14.2688 27.4117 17.2871 27.4117 21.0005C27.4117 24.7139 24.4561 27.7322 20.8199 27.7322ZM20.8199 15.8237C18.0166 15.8237 15.7416 18.1468 15.7416 21.0096C15.7416 23.8725 18.0166 26.1956 20.8199 26.1956C23.6232 26.1956 25.8981 23.8725 25.8981 21.0096C25.8981 18.1468 23.6232 15.8237 20.8199 15.8237Z" fill="#1EAAB1"/>
<path id="Vector_4" d="M20.8188 24.531C18.9201 24.531 17.3706 22.9487 17.3706 21.0096C17.3706 19.0706 18.9201 17.4883 20.8188 17.4883C22.7175 17.4883 24.267 19.0706 24.267 21.0096C24.267 22.9487 22.7265 24.531 20.8188 24.531ZM20.8188 19.034C19.753 19.034 18.8842 19.9212 18.8842 21.0096C18.8842 22.0981 19.753 22.9852 20.8188 22.9852C21.8846 22.9852 22.7534 22.0981 22.7534 21.0096C22.7534 19.9121 21.8846 19.034 20.8188 19.034Z" fill="#1EAAB1"/>
<path id="Vector_5" d="M23.5144 16.491C23.1203 16.491 22.7889 16.18 22.7621 15.7684C22.7441 15.494 22.4038 9.00012 28.2523 5.53365C28.6195 5.31414 29.0763 5.44221 29.2823 5.81721C29.4883 6.18306 29.3718 6.65865 29.0046 6.86902C23.9801 9.85073 24.2488 15.43 24.2667 15.6678C24.2936 16.0885 23.9712 16.4544 23.5592 16.4818C23.5413 16.491 23.5144 16.491 23.5144 16.491Z" fill="#1EAAB1"/>
<path id="Vector_6" d="M18.1329 16.4905C18.115 16.4905 18.0971 16.4905 18.0792 16.4905C17.6672 16.4631 17.3447 16.0972 17.3716 15.6674C17.3805 15.4296 17.6492 9.85028 12.6337 6.86857C12.2754 6.65821 12.1501 6.18262 12.3561 5.81676C12.5621 5.45091 13.0278 5.32284 13.395 5.53321C19.2435 8.99967 18.9031 15.4936 18.8852 15.768C18.8584 16.1795 18.527 16.4905 18.1329 16.4905Z" fill="#1EAAB1"/>
<path id="Vector_7" d="M16.7354 17.5342C16.6727 17.5342 16.61 17.5251 16.5473 17.5068C16.2876 17.4427 10.1346 15.7598 8.71053 9.00981C8.62097 8.58908 8.88073 8.1775 9.29272 8.09519C9.69575 8.00372 10.0988 8.26895 10.1883 8.68969C11.4154 14.4885 16.6906 15.9519 16.9145 16.0159C17.3176 16.1257 17.5594 16.5464 17.4609 16.958C17.3713 17.2964 17.0668 17.5342 16.7354 17.5342Z" fill="#1EAAB1"/>
<path id="Vector_8" d="M4.6255 24.7876C4.41951 24.7876 4.21348 24.6961 4.06122 24.5315C3.78358 24.2113 3.81044 23.7266 4.12392 23.4431C9.15737 18.8333 15.1044 21.1656 15.3462 21.2754C15.7313 21.4309 15.9284 21.879 15.7672 22.2815C15.6059 22.6839 15.176 22.8669 14.782 22.7114C14.5581 22.6199 9.444 20.6443 5.12705 24.5955C4.98375 24.7235 4.80463 24.7876 4.6255 24.7876Z" fill="#1EAAB1"/>
<path id="Vector_9" d="M7.09828 29.1228C6.71315 29.1228 6.31908 29.1045 5.91604 29.0587C5.4951 29.013 5.19953 28.638 5.23536 28.2081C5.28014 27.7874 5.64737 27.4855 6.06832 27.5221C11.872 28.1349 14.9351 23.2965 14.9709 23.2508C15.1948 22.8941 15.6605 22.7843 16.0188 23.013C16.377 23.2416 16.4755 23.7172 16.2516 24.0831C16.1083 24.2935 13.0453 29.1228 7.09828 29.1228Z" fill="#1EAAB1"/>
<path id="Vector_10" d="M18.6172 38.4425C18.3306 38.4425 18.053 38.2688 17.9276 37.9852C15.1959 31.6651 19.1994 26.6163 19.3785 26.406C19.6472 26.0767 20.1219 26.031 20.4443 26.3054C20.7667 26.5797 20.8115 27.0645 20.5428 27.3938C20.3995 27.5767 16.9603 31.9304 19.3158 37.3633C19.486 37.7566 19.3158 38.2139 18.9307 38.3785C18.8232 38.4151 18.7247 38.4425 18.6172 38.4425Z" fill="#1EAAB1"/>
<path id="Vector_11" d="M23.023 38.4425C22.9155 38.4425 22.817 38.4243 22.7185 38.3785C22.3333 38.2047 22.1632 37.7474 22.3333 37.3633C24.6799 31.9395 21.2496 27.5858 21.1063 27.3938C20.8376 27.0645 20.8824 26.5797 21.2049 26.3054C21.5273 26.031 22.002 26.0767 22.2706 26.406C22.4408 26.6163 26.4533 31.6651 23.7216 37.9852C23.5872 38.2688 23.3096 38.4425 23.023 38.4425Z" fill="#1EAAB1"/>
<path id="Vector_12" d="M34.5487 29.1224C28.6017 29.1224 25.5386 24.2931 25.4043 24.0736C25.1804 23.7077 25.2878 23.2321 25.6371 23.0035C25.9864 22.7748 26.4522 22.8846 26.6761 23.2413C26.8015 23.4425 29.7929 28.1163 35.5787 27.5126C35.9907 27.476 36.3668 27.7779 36.4116 28.1986C36.4564 28.6193 36.1519 29.0034 35.7399 29.0492C35.3279 29.1041 34.9338 29.1224 34.5487 29.1224Z" fill="#1EAAB1"/>
<path id="Vector_13" d="M37.0138 24.7858C36.8347 24.7858 36.6556 24.7217 36.5123 24.5846C32.1864 20.6333 27.0633 22.6181 26.8574 22.7004C26.4722 22.8559 26.0334 22.6638 25.8722 22.2614C25.7199 21.8681 25.908 21.4199 26.2931 21.2644C26.5439 21.1638 32.4819 18.8224 37.5154 23.4321C37.8288 23.7157 37.8557 24.2004 37.5781 24.5205C37.4348 24.7035 37.2288 24.7858 37.0138 24.7858Z" fill="#1EAAB1"/>
<path id="Vector_14" d="M24.9132 17.5336C24.5728 17.5336 24.2683 17.3049 24.1787 16.9482C24.0713 16.5367 24.322 16.1159 24.7251 16.0062C24.9579 15.9421 30.2332 14.4787 31.4513 8.67995C31.5408 8.25922 31.9439 7.99396 32.3469 8.08542C32.7589 8.17688 33.0186 8.58849 32.9291 9.00007C31.505 15.7501 25.352 17.4239 25.0923 17.497C25.0386 17.5245 24.9759 17.5336 24.9132 17.5336Z" fill="#1EAAB1"/>
<path id="Vector_15" d="M36.0447 16.8483C35.7492 16.8483 35.4625 16.6654 35.3461 16.3727L32.9637 10.4916C31.5576 7.01601 33.1787 3.00993 36.5821 1.57395C39.9944 0.137978 43.9084 1.79345 45.3145 5.27821L47.6969 11.1593C47.8581 11.5526 47.67 12.0008 47.2849 12.1654L36.3223 16.7934C36.2417 16.83 36.1432 16.8483 36.0447 16.8483ZM37.1643 2.99163C34.5311 4.10748 33.2683 7.19895 34.3609 9.89712L36.4567 15.0648L46.022 11.0221L43.9263 5.85443C42.8336 3.1654 39.7974 1.87577 37.1643 2.99163Z" fill="#1EAAB1"/>
<path id="Vector_16" d="M35.4259 17.1042C35.1303 17.1042 34.8437 16.9213 34.7273 16.6286C34.5661 16.2353 34.7541 15.7871 35.1393 15.6225L47.3378 10.4731C47.7229 10.3085 48.1707 10.5006 48.323 10.8939C48.4842 11.2872 48.2961 11.7353 47.911 11.8999L35.7125 17.0493C35.6139 17.0859 35.5154 17.1042 35.4259 17.1042Z" fill="#1EAAB1"/>
<path id="Vector_17" d="M41.5261 18.0181C39.8871 18.0181 38.3287 17.0211 37.6659 15.384C37.5853 15.1919 37.5853 14.9815 37.6659 14.7895C37.7465 14.5974 37.8898 14.451 38.0779 14.3687L44.3921 11.698C44.7772 11.5333 45.2161 11.7254 45.3773 12.1187C46.255 14.2864 45.2429 16.7834 43.1203 17.6889C42.6008 17.9175 42.0635 18.0181 41.5261 18.0181ZM39.4572 15.4663C40.1827 16.3809 41.4276 16.7376 42.5382 16.2711C43.6487 15.8047 44.2846 14.6431 44.1682 13.4815L39.4572 15.4663Z" fill="#1EAAB1"/>
<path id="Vector_18" d="M41.8506 41.9998H7.90614C7.48519 41.9998 7.15381 41.6523 7.15381 41.2315C7.15381 40.8017 7.49415 40.4541 7.90614 40.4541H41.8506C42.2715 40.4541 42.6029 40.8017 42.6029 41.2315C42.6119 41.6523 42.2715 41.9998 41.8506 41.9998Z" fill="#1EAAB1"/>
</g>
</svg>
