<svg width="39" height="43" viewBox="0 0 39 43" fill="none" xmlns="http://www.w3.org/2000/svg">
<g id="Group">
<path id="Vector" d="M36.1476 37.0737H32.8767C32.4669 37.0737 32.1359 36.7477 32.1359 36.3442C32.1359 35.3276 31.7575 34.342 31.0718 33.5737C30.8827 33.3564 30.8354 33.0537 30.9536 32.7899C31.0718 32.526 31.3398 32.363 31.6235 32.363H36.1397C37.0146 32.363 37.7318 33.0615 37.7318 33.9307V35.5138C37.7397 36.3752 37.0304 37.0737 36.1476 37.0737ZM33.5782 35.6224H36.1555C36.2186 35.6224 36.2658 35.5759 36.2658 35.5138V33.9307C36.2658 33.8686 36.2186 33.822 36.1555 33.822H33.0186C33.3024 34.3885 33.4915 34.9938 33.5782 35.6224Z" fill="#1EAAB1"/>
<path id="Vector_2" d="M27.8733 42.0094C24.7048 42.0094 22.1196 39.4717 22.1196 36.3442C22.1196 33.2244 24.697 30.679 27.8733 30.679C31.0417 30.679 33.6269 33.2167 33.6269 36.3442C33.6269 39.4717 31.0417 42.0094 27.8733 42.0094ZM27.8733 32.1457C25.5166 32.1457 23.6014 34.0315 23.6014 36.3519C23.6014 38.6723 25.5166 40.5581 27.8733 40.5581C30.2299 40.5581 32.1451 38.6723 32.1451 36.3519C32.1451 34.0315 30.2299 32.1457 27.8733 32.1457Z" fill="#1EAAB1"/>
<path id="Vector_3" d="M27.874 39.2009C26.2819 39.2009 24.9814 37.9204 24.9814 36.3528C24.9814 34.7851 26.2819 33.5046 27.874 33.5046C29.4661 33.5046 30.7666 34.7851 30.7666 36.3528C30.7666 37.9204 29.474 39.2009 27.874 39.2009ZM27.874 34.9559C27.0937 34.9559 26.4632 35.5845 26.4632 36.345C26.4632 37.1133 27.0937 37.7341 27.874 37.7341C28.6543 37.7341 29.2848 37.1133 29.2848 36.345C29.2848 35.5845 28.6543 34.9559 27.874 34.9559Z" fill="#1EAAB1"/>
<path id="Vector_4" d="M27.6681 23.8959H12.756C12.3461 23.8959 12.0151 23.57 12.0151 23.1664V14.2573C12.0151 13.8538 12.3461 13.5278 12.756 13.5278C13.1658 13.5278 13.4969 13.8538 13.4969 14.2573V22.4369H27.6681C28.0779 22.4369 28.4089 22.7629 28.4089 23.1664C28.4089 23.57 28.0779 23.8959 27.6681 23.8959Z" fill="#1EAAB1"/>
<path id="Vector_5" d="M12.7557 30.1903C12.3458 30.1903 12.0148 29.8644 12.0148 29.4608V23.9043H9.78432C9.37447 23.9043 9.04346 23.5783 9.04346 23.1748C9.04346 22.7712 9.37447 22.4453 9.78432 22.4453H12.7557C13.1655 22.4453 13.4966 22.7712 13.4966 23.1748V29.4608C13.4966 29.8644 13.1655 30.1903 12.7557 30.1903Z" fill="#1EAAB1"/>
<path id="Vector_6" d="M23.2856 23.8964C23.1359 23.8964 22.9861 23.8498 22.86 23.7645L19.2108 21.219C18.8798 20.9862 18.801 20.5283 19.0374 20.2024C19.2739 19.8764 19.7389 19.7988 20.0699 20.0317L23.7191 22.5771C24.0502 22.8099 24.129 23.2678 23.8925 23.5937C23.7428 23.7955 23.5142 23.8964 23.2856 23.8964Z" fill="#1EAAB1"/>
<path id="Vector_7" d="M35.3209 33.8299H31.6401C31.4273 33.8299 31.2224 33.7368 31.0805 33.5816C30.2687 32.6658 29.0944 32.1459 27.8727 32.1459C26.651 32.1459 25.4767 32.6658 24.6649 33.5816C24.523 33.7368 24.3181 33.8299 24.1053 33.8299H9.78432C9.37447 33.8299 9.04346 33.504 9.04346 33.1004V14.2656C9.04346 13.8621 9.37447 13.5361 9.78432 13.5361H19.8649C20.0777 13.5361 20.2827 13.6293 20.4246 13.7922L28.0067 22.4452H31.4667C33.9967 22.4452 36.0538 24.4707 36.0538 26.9696V33.1082C36.0617 33.504 35.7307 33.8299 35.3209 33.8299ZM31.9633 32.371H34.58V26.9618C34.58 25.2778 33.1849 23.8965 31.4746 23.8965H27.6756C27.4628 23.8965 27.2579 23.8033 27.1161 23.6481L19.5339 14.9951H10.5331V32.371H23.79C24.8698 31.2922 26.3358 30.6869 27.8727 30.6869C29.4096 30.6869 30.8835 31.2922 31.9633 32.371Z" fill="#1EAAB1"/>
<path id="Vector_8" d="M22.86 37.0737H9.78432C9.37447 37.0737 9.04346 36.7477 9.04346 36.3442V33.0925C9.04346 32.689 9.37447 32.363 9.78432 32.363H24.1053C24.3969 32.363 24.657 32.5338 24.7831 32.7899C24.9013 33.0537 24.854 33.3564 24.6649 33.5737C23.9792 34.342 23.6009 35.3276 23.6009 36.3442C23.6009 36.7477 23.2698 37.0737 22.86 37.0737ZM10.5252 35.6224H22.1664C22.2452 35.0016 22.4423 34.3963 22.726 33.8298H10.5252V35.6224Z" fill="#1EAAB1"/>
<path id="Vector_9" d="M9.78479 42.01H4.05482C3.64498 42.01 3.31396 41.684 3.31396 41.2805V4.70507C3.31396 4.30153 3.64498 3.97559 4.05482 3.97559H9.78479C10.1946 3.97559 10.5257 4.30153 10.5257 4.70507V41.2805C10.5257 41.684 10.1946 42.01 9.78479 42.01ZM4.79571 40.5587H9.04393V5.44232H4.79571V40.5587Z" fill="#1EAAB1"/>
<path id="Vector_10" d="M13.6866 5.44213H1.1154C0.705555 5.44213 0.374512 5.11619 0.374512 4.71264V0.739255C0.374512 0.335707 0.705555 0.00976562 1.1154 0.00976562H13.6866C14.0964 0.00976562 14.4275 0.335707 14.4275 0.739255V4.71264C14.4275 5.10843 14.0964 5.44213 13.6866 5.44213ZM1.84838 3.98315H12.9457V1.46874H1.84838V3.98315Z" fill="#1EAAB1"/>
<path id="Vector_11" d="M38.0882 42.0102H1.1154C0.705555 42.0102 0.374512 41.6843 0.374512 41.2807C0.374512 40.8772 0.705555 40.5513 1.1154 40.5513H38.0882C38.498 40.5513 38.8291 40.8772 38.8291 41.2807C38.8291 41.6843 38.498 42.0102 38.0882 42.0102Z" fill="#1EAAB1"/>
<path id="Vector_12" d="M9.82429 9.29167C9.79276 9.29167 9.76124 9.29167 9.76124 9.29167C9.35139 9.27615 9.02825 8.94244 9.04401 8.5389C9.05977 8.13535 9.41442 7.84821 9.80062 7.83269C9.82427 7.84045 11.4321 7.85597 12.3227 6.91695C12.8035 6.41251 13.0085 5.69078 12.9375 4.76728C12.906 4.36373 13.2134 4.01451 13.6153 3.98347C14.0252 3.96018 14.3799 4.25509 14.4114 4.65088C14.5218 6.00897 14.1749 7.11096 13.3868 7.92581C12.1494 9.22958 10.2026 9.29167 9.82429 9.29167Z" fill="#1EAAB1"/>
</g>
</svg>
