<!DOCTYPE svg PUBLIC "-//W3C//DTD SVG 1.1//EN" "http://www.w3.org/Graphics/SVG/1.1/DTD/svg11.dtd">
<!-- Uploaded to: SVG Repo, www.svgrepo.com, Transformed by: SVG Repo Mixer Tools -->
<svg width="64px" height="64px" viewBox="0 0 24 24" version="1.1" xml:space="preserve" xmlns="http://www.w3.org/2000/svg" xmlns:xlink="http://www.w3.org/1999/xlink" fill="#ffffff">
<g id="SVGRepo_bgCarrier" stroke-width="0"/>
<g id="SVGRepo_tracerCarrier" stroke-linecap="round" stroke-linejoin="round"/>
<g id="SVGRepo_iconCarrier"> <style type="text/css"> .st0{display:none;} .st1{display:inline;} .st2{opacity:0.2;fill:none;stroke:#000000;stroke-width:5.000000e-02;stroke-miterlimit:10;} </style> <g class="st0" id="grid_system"/> <g id="_icons"> <g> <path d="M15.9,14.3c-0.9-0.9-2.4-0.9-3.4,0c-0.2,0.2-0.6,0.2-0.9,0l-1.9-1.9c-0.2-0.2-0.2-0.6,0-0.9c0.9-0.9,0.9-2.4,0-3.4 L7.4,5.8C6.5,4.9,5,4.9,4.1,5.8C3,6.8,2.4,8.3,2.4,9.8c0,1.5,0.6,2.9,1.6,4l6.2,6.2c1.1,1.1,2.5,1.6,4,1.6c1.5,0,2.9-0.6,4-1.6 c0.4-0.4,0.7-1,0.7-1.7c0-0.6-0.2-1.2-0.7-1.7L15.9,14.3z M16.8,18.5c-1.4,1.4-3.8,1.4-5.1,0l-6.2-6.2c-0.7-0.7-1.1-1.6-1.1-2.6 c0-1,0.4-1.9,1.1-2.6c0.1-0.1,0.2-0.1,0.3-0.1c0.1,0,0.2,0,0.3,0.1l2.3,2.3c0.1,0.1,0.1,0.2,0.1,0.3c0,0.1,0,0.2-0.1,0.3 c-1,1-1,2.7,0,3.7l1.9,1.9c1,1,2.7,1,3.7,0c0.2-0.2,0.3-0.2,0.5,0l2.3,2.3C17,18.1,17,18.4,16.8,18.5z"/> <path d="M15,10c0.6,0,1-0.4,1-1V5c0-0.6-0.4-1-1-1s-1,0.4-1,1v4C14,9.6,14.4,10,15,10z"/> <path d="M18,4c-0.6,0-1,0.4-1,1v4c0,0.6,0.4,1,1,1s1-0.4,1-1V5C19,4.4,18.6,4,18,4z"/> </g> </g> </g>
</svg>