<!DOCTYPE svg PUBLIC "-//W3C//DTD SVG 1.1//EN" "http://www.w3.org/Graphics/SVG/1.1/DTD/svg11.dtd">
<!-- Uploaded to: SVG Repo, www.svgrepo.com, Transformed by: SVG Repo Mixer Tools -->
<svg width="64px" height="64px" viewBox="0 0 24 24" version="1.1" xml:space="preserve" xmlns="http://www.w3.org/2000/svg" xmlns:xlink="http://www.w3.org/1999/xlink" fill="#ffffff">
<g id="SVGRepo_bgCarrier" stroke-width="0"/>
<g id="SVGRepo_tracerCarrier" stroke-linecap="round" stroke-linejoin="round"/>
<g id="SVGRepo_iconCarrier"> <style type="text/css"> .st0{display:none;} .st1{display:inline;} .st2{opacity:0.2;fill:none;stroke:#000000;stroke-width:5.000000e-02;stroke-miterlimit:10;} </style> <g class="st0" id="grid_system"/> <g id="_icons"> <g> <path d="M15.9,14.3c-0.9-0.9-2.4-0.9-3.4,0c-0.2,0.2-0.6,0.2-0.9,0l-1.9-1.9c-0.2-0.2-0.2-0.6,0-0.9c0.9-0.9,0.9-2.4,0-3.4 L7.4,5.8C6.5,4.9,5,4.9,4.1,5.8C3,6.8,2.4,8.3,2.4,9.8c0,1.5,0.6,2.9,1.6,4l6.2,6.2c1.1,1.1,2.5,1.6,4,1.6c1.5,0,2.9-0.6,4-1.6 c0.4-0.4,0.7-1,0.7-1.7c0-0.6-0.2-1.2-0.7-1.7L15.9,14.3z M16.8,18.5c-1.4,1.4-3.8,1.4-5.1,0l-6.2-6.2c-0.7-0.7-1.1-1.6-1.1-2.6 c0-1,0.4-1.9,1.1-2.6c0.1-0.1,0.2-0.1,0.3-0.1c0.1,0,0.2,0,0.3,0.1l2.3,2.3c0.1,0.1,0.1,0.2,0.1,0.3c0,0.1,0,0.2-0.1,0.3 c-1,1-1,2.7,0,3.7l1.9,1.9c1,1,2.7,1,3.7,0c0.2-0.2,0.3-0.2,0.5,0l2.3,2.3C17,18.1,17,18.4,16.8,18.5z"/> <path d="M19.8,4.2C19.1,3.4,18.1,3,17,3c-1,0-2,0.4-2.7,1.1C13.5,4.8,13,5.9,13,7c0,1.1,0.4,2.1,1.2,2.8c0.8,0.8,1.8,1.2,2.8,1.2 c0.5,0,0.9-0.1,1.3-0.2C19.9,10.2,21,8.7,21,7C21,5.9,20.6,4.9,19.8,4.2z M15,7c0-0.6,0.2-1.1,0.7-1.5C16,5.2,16.5,5,17,5 c0.2,0,0.4,0,0.5,0.1l-2.5,2.5C15,7.4,15,7.2,15,7z M17.6,8.9c-0.3,0.1-0.8,0.1-1.1,0l2.5-2.5C19,6.6,19,6.8,19,7 C19,7.8,18.5,8.6,17.6,8.9z"/> </g> </g> </g>
</svg>