<svg width="480" height="100" viewBox="0 0 480 100" fill="none" xmlns="http://www.w3.org/2000/svg">
<path fill-rule="evenodd" clip-rule="evenodd" d="M281 32.5C282.933 32.5 284.5 34.067 284.5 36C284.5 37.933 282.933 39.5 281 39.5H261C262.933 39.5 264.5 41.067 264.5 43C264.5 44.933 262.933 46.5 261 46.5H272C273.933 46.5 275.5 48.067 275.5 50C275.5 51.933 273.933 53.5 272 53.5H266.913C264.476 53.5 262.5 55.067 262.5 57C262.5 58.2887 263.5 59.4553 265.5 60.5C267.433 60.5 269 62.067 269 64C269 65.933 267.433 67.5 265.5 67.5H224C222.067 67.5 220.5 65.933 220.5 64C220.5 62.067 222.067 60.5 224 60.5H204.5C202.567 60.5 201 58.933 201 57C201 55.067 202.567 53.5 204.5 53.5H224.5C226.433 53.5 228 51.933 228 50C228 48.067 226.433 46.5 224.5 46.5H212C210.067 46.5 208.5 44.933 208.5 43C208.5 41.067 210.067 39.5 212 39.5H232C230.067 39.5 228.5 37.933 228.5 36C228.5 34.067 230.067 32.5 232 32.5H281ZM281 46.5C282.933 46.5 284.5 48.067 284.5 50C284.5 51.933 282.933 53.5 281 53.5C279.067 53.5 277.5 51.933 277.5 50C277.5 48.067 279.067 46.5 281 46.5Z" fill="#F4F6F9"/>
<path fill-rule="evenodd" clip-rule="evenodd" d="M254.336 31.9999L258.987 65.9212L259.405 69.3244C259.54 70.4207 258.76 71.4186 257.664 71.5532L228.383 75.1483C227.287 75.283 226.289 74.5033 226.155 73.407L221.647 36.6932C221.579 36.1451 221.969 35.6461 222.517 35.5788C222.521 35.5784 222.524 35.578 222.528 35.5776L224.957 35.3051M226.921 35.0848L229.215 34.8275L226.921 35.0848Z" fill="white"/>
<path d="M255.575 31.8301C255.481 31.1461 254.85 30.6677 254.166 30.7614C253.482 30.8552 253.004 31.4857 253.098 32.1697L255.575 31.8301ZM258.987 65.9212L260.228 65.7689C260.227 65.7631 260.226 65.7572 260.226 65.7514L258.987 65.9212ZM259.405 69.3244L260.646 69.172L259.405 69.3244ZM257.664 71.5532L257.816 72.7939L257.664 71.5532ZM228.383 75.1483L228.536 76.389L228.383 75.1483ZM226.155 73.407L227.395 73.2547L226.155 73.407ZM222.528 35.5776L222.667 36.8198L222.528 35.5776ZM225.096 36.5473C225.782 36.4704 226.276 35.8518 226.199 35.1658C226.122 34.4797 225.504 33.9859 224.818 34.0629L225.096 36.5473ZM226.782 33.8426C226.096 33.9195 225.602 34.5381 225.679 35.2241C225.756 35.9102 226.375 36.4039 227.061 36.327L226.782 33.8426ZM229.354 36.0697C230.04 35.9927 230.534 35.3742 230.457 34.6881C230.38 34.0021 229.762 33.5083 229.075 33.5853L229.354 36.0697ZM253.098 32.1697L257.749 66.091L260.226 65.7514L255.575 31.8301L253.098 32.1697ZM257.746 66.0736L258.164 69.4767L260.646 69.172L260.228 65.7689L257.746 66.0736ZM258.164 69.4767C258.215 69.8878 257.922 70.262 257.511 70.3125L257.816 72.7939C259.597 72.5751 260.864 70.9536 260.646 69.172L258.164 69.4767ZM257.511 70.3125L228.231 73.9077L228.536 76.389L257.816 72.7939L257.511 70.3125ZM228.231 73.9077C227.82 73.9581 227.446 73.6658 227.395 73.2547L224.914 73.5593C225.133 75.3409 226.754 76.6078 228.536 76.389L228.231 73.9077ZM227.395 73.2547L222.887 36.5409L220.406 36.8456L224.914 73.5593L227.395 73.2547ZM222.887 36.5409C222.904 36.6779 222.807 36.8027 222.67 36.8195L222.365 34.3381C221.132 34.4896 220.255 35.6122 220.406 36.8456L222.887 36.5409ZM222.67 36.8195C222.669 36.8196 222.668 36.8197 222.667 36.8198L222.388 34.3354C222.381 34.3363 222.373 34.3372 222.365 34.3381L222.67 36.8195ZM222.667 36.8198L225.096 36.5473L224.818 34.0629L222.388 34.3354L222.667 36.8198ZM227.061 36.327L229.354 36.0697L229.075 33.5853L226.782 33.8426L227.061 36.327Z" fill="#8496AE"/>
<path fill-rule="evenodd" clip-rule="evenodd" d="M253.07 34.1348L257.28 64.8767L257.658 67.9608C257.78 68.9543 257.083 69.8575 256.102 69.978L229.881 73.1976C228.899 73.3181 228.004 72.6104 227.882 71.6168L223.929 39.4211C223.794 38.3248 224.574 37.3269 225.67 37.1923L227.921 36.9159" fill="#F1F4F9"/>
<path d="M232.086 29C232.086 27.4812 233.317 26.25 234.836 26.25H254.786C255.515 26.25 256.215 26.5395 256.73 27.0549L262.28 32.6011L263.163 31.7169L262.28 32.6011C262.796 33.1169 263.086 33.8166 263.086 34.5463V63C263.086 64.5188 261.855 65.75 260.336 65.75H234.836C233.317 65.75 232.086 64.5188 232.086 63V29Z" fill="white" stroke="#8496AE" stroke-width="2.5"/>
<path d="M255.836 26.2012V31.9998C255.836 32.8282 256.508 33.4998 257.336 33.4998H261.303" stroke="#8496AE" stroke-width="2.5" stroke-linecap="round" stroke-linejoin="round"/>
<path d="M236.5 59H249.5M236.5 33.5H249.5H236.5ZM236.5 39.5H258H236.5ZM236.5 46H258H236.5ZM236.5 52.5H258H236.5Z" stroke="#CBD5E0" stroke-width="2.5" stroke-linecap="round" stroke-linejoin="round"/>
</svg>
